<?xml version="1.0" encoding="utf-8"?>
<!-- Generator: Adobe Illustrator 26.0.2, SVG Export Plug-In . SVG Version: 6.00 Build 0)  -->
<svg version="1.1" id="Layer_1" xmlns="http://www.w3.org/2000/svg" xmlns:xlink="http://www.w3.org/1999/xlink" x="0px" y="0px"
	 viewBox="0 0 218.58 52.69" style="enable-background:new 0 0 218.58 52.69;" xml:space="preserve">
<style type="text/css">
	.st0{fill:#1B2C4C;}
	.st1{fill:#F8AD2B;}
</style>
<g>
	<g>
		<path class="st0" d="M62.55,24.04v2.91c0.62-0.83,1.46-1.62,2.53-2.34c1.06-0.73,2.28-1.09,3.66-1.09c2.07,0,3.81,0.7,5.22,2.1
			c1.4,1.4,2.1,3.5,2.1,6.31v12.53h-5.13l-0.04-11.85c0-1.37-0.33-2.4-0.99-3.07c-0.66-0.67-1.57-1.01-2.73-1.01
			c-0.92,0-1.77,0.3-2.57,0.89c-0.8,0.59-1.48,1.29-2.04,2.1v12.94h-5.13V24.04H62.55z"/>
		<path class="st0" d="M99.37,24.04v12.17c0,1.81-0.4,3.36-1.21,4.67c-0.81,1.31-1.91,2.31-3.29,3.01c-1.39,0.7-2.96,1.05-4.71,1.05
			c-1.78,0-3.36-0.35-4.75-1.05s-2.48-1.7-3.27-3.01c-0.8-1.31-1.19-2.86-1.19-4.67V24.04h5.17l0.04,11.24
			c0,1.59,0.36,2.78,1.09,3.56c0.73,0.78,1.7,1.17,2.91,1.17c1.19,0,2.15-0.39,2.89-1.17s1.11-1.97,1.11-3.56V24.04H99.37z"/>
		<path class="st0" d="M116.57,24.04v4.29h-5.3v16.13h-5.13V28.33h-3.11v-4.29h3.11v-1.82c0-1.56,0.33-2.9,0.99-4.02
			c0.66-1.12,1.53-1.97,2.61-2.57c1.08-0.59,2.26-0.89,3.56-0.89c0.86,0,1.62,0.1,2.26,0.28c0.65,0.19,1.21,0.44,1.7,0.77v4.29
			c-0.89-0.54-1.91-0.79-3.07-0.77c-0.81,0.03-1.5,0.29-2.06,0.79c-0.57,0.5-0.85,1.31-0.85,2.45v1.5h5.29V24.04z"/>
		<path class="st0" d="M128.28,23.51c1.1,0,2.22,0.26,3.36,0.77c1.13,0.51,2.07,1.2,2.83,2.06v-2.3h5.13v20.42h-5.13v-3.44
			c-0.59,1.11-1.46,2.06-2.59,2.85c-1.13,0.79-2.45,1.19-3.96,1.19c-1.64,0-3.16-0.42-4.55-1.25s-2.5-2.05-3.34-3.64
			s-1.25-3.52-1.25-5.78s0.42-4.2,1.27-5.82c0.85-1.62,1.99-2.86,3.44-3.74C124.93,23.95,126.53,23.51,128.28,23.51z M129.34,28.53
			c-1.08,0-2,0.28-2.77,0.83s-1.37,1.27-1.8,2.16s-0.65,1.85-0.65,2.87c0,1.54,0.46,2.84,1.39,3.92c0.93,1.08,2.16,1.62,3.7,1.62
			c0.92,0,1.77-0.24,2.57-0.73c0.79-0.49,1.44-1.17,1.94-2.04c0.5-0.88,0.75-1.93,0.75-3.17v-2.91c-0.73-0.78-1.52-1.4-2.37-1.86
			C131.26,28.76,130.33,28.53,129.34,28.53z"/>
		<path class="st0" d="M154.59,23.51c1.51,0,2.75,0.24,3.72,0.73s1.74,0.96,2.3,1.42v4.73c-0.7-0.51-1.49-0.94-2.37-1.29
			c-0.88-0.35-1.95-0.53-3.21-0.53c-1.02,0-1.97,0.26-2.85,0.77s-1.57,1.2-2.08,2.06c-0.51,0.86-0.77,1.85-0.77,2.95
			c0,1.67,0.54,3.05,1.62,4.12c1.08,1.08,2.44,1.62,4.08,1.62c1.27,0,2.34-0.17,3.21-0.51c0.88-0.34,1.66-0.76,2.37-1.27V43
			c-0.57,0.49-1.33,0.95-2.3,1.39s-2.21,0.67-3.72,0.67c-2.08,0-3.92-0.49-5.52-1.48c-1.6-0.98-2.87-2.29-3.8-3.92
			c-0.93-1.63-1.39-3.4-1.39-5.32c0-1.43,0.26-2.79,0.79-4.08s1.27-2.45,2.24-3.46s2.11-1.81,3.42-2.41
			C151.63,23.81,153.05,23.51,154.59,23.51z"/>
		<path class="st0" d="M171.96,18.1v5.94h5.66v4.29h-5.66v8.81c0,0.92,0.21,1.64,0.63,2.16c0.42,0.53,1.04,0.79,1.88,0.79
			c0.73,0,1.35-0.08,1.88-0.24s1.02-0.39,1.48-0.69v4.08c-0.51,0.51-1.15,0.94-1.92,1.29c-0.77,0.35-1.73,0.53-2.89,0.53
			c-1.83,0-3.32-0.59-4.47-1.76s-1.72-2.78-1.72-4.83V28.33h-3.68V25.7c1.29-0.46,2.49-1.32,3.58-2.59s1.96-2.94,2.61-5.01H171.96z"
			/>
		<path class="st0" d="M200.49,24.04v12.17c0,1.81-0.4,3.36-1.21,4.67c-0.81,1.31-1.91,2.31-3.29,3.01
			c-1.39,0.7-2.96,1.05-4.71,1.05c-1.78,0-3.36-0.35-4.75-1.05s-2.48-1.7-3.27-3.01c-0.8-1.31-1.19-2.86-1.19-4.67V24.04h5.17
			l0.04,11.24c0,1.59,0.36,2.78,1.09,3.56c0.73,0.78,1.7,1.17,2.91,1.17c1.19,0,2.15-0.39,2.89-1.17s1.11-1.97,1.11-3.56V24.04
			H200.49z"/>
		<path class="st0" d="M218.58,29.78c-0.86-0.49-1.76-0.73-2.71-0.73c-1.18,0-2.17,0.38-2.95,1.15s-1.47,1.72-2.06,2.85v11.4h-5.13
			V24.04h5.13v3.84c0.7-1.21,1.53-2.22,2.49-3.03c0.96-0.81,2.04-1.21,3.25-1.21c0.73,0,1.39,0.12,1.98,0.36V29.78z"/>
	</g>
	<path class="st1" d="M49.61,15.4c2.65-5.21,0.56-11.59-4.64-14.24c-2.52-1.28-5.39-1.5-8.08-0.63c-1.96,0.64-3.64,1.81-4.91,3.37
		l-18.64,8.41c-1.28,0.05-2.56,0.26-3.81,0.67c-3.51,1.15-6.37,3.59-8.04,6.88c-3.45,6.8-0.73,15.14,6.07,18.6
		c1.48,0.75,3.04,1.21,4.61,1.4l15.66,8.78c0.83,1.26,1.95,2.35,3.39,3.08c1.28,0.65,2.66,0.98,4.05,0.98
		c0.93,0,1.87-0.15,2.78-0.45c2.27-0.74,4.12-2.32,5.21-4.46c1.07-2.11,1.21-4.45,0.59-6.56l4.82-24.33
		C49.01,16.42,49.34,15.93,49.61,15.4z M38.49,5.45c0.55-0.18,1.12-0.27,1.68-0.27c0.84,0,1.68,0.2,2.45,0.59
		c2.66,1.35,3.73,4.62,2.37,7.28c-0.66,1.29-1.77,2.25-3.15,2.7s-2.84,0.33-4.13-0.32c-1.29-0.66-2.25-1.77-2.7-3.15
		c-0.45-1.37-0.33-2.84,0.32-4.13C36,6.85,37.12,5.89,38.49,5.45z M6.11,22.21c1.05-2.06,2.83-3.59,5.03-4.31
		c0.88-0.29,1.79-0.43,2.69-0.43c1.34,0,2.68,0.32,3.91,0.94c2.06,1.05,3.59,2.83,4.31,5.03s0.53,4.54-0.51,6.6
		c-1.05,2.06-2.83,3.59-5.03,4.31s-4.54,0.54-6.6-0.51C5.65,31.68,3.95,26.46,6.11,22.21z M38.64,45.45
		c-0.46,0.9-1.24,1.57-2.2,1.88c-0.96,0.32-1.98,0.24-2.88-0.22c-1.86-0.94-2.6-3.22-1.66-5.08c0.46-0.9,1.24-1.57,2.2-1.88
		s1.98-0.23,2.88,0.22C38.84,41.31,39.59,43.59,38.64,45.45z M27.29,39.68c-0.75,1.47-1.01,3.04-0.92,4.58l-8.69-4.87
		c3.54-1.03,6.67-3.46,8.47-6.99c1.67-3.29,1.96-7.04,0.82-10.55c-1.15-3.51-3.59-6.37-6.88-8.04c-0.41-0.21-0.83-0.4-1.25-0.56
		l11.04-4.98c-0.42,1.85-0.38,3.77,0.22,5.62c0.88,2.69,2.75,4.88,5.27,6.16c1.51,0.77,3.14,1.16,4.79,1.16
		c1.1,0,2.21-0.17,3.29-0.53c0.5-0.16,0.95-0.39,1.41-0.62l-3.42,17.27c-0.62-0.6-1.31-1.15-2.12-1.56
		C34.93,33.52,29.53,35.28,27.29,39.68z"/>
</g>
</svg>
